#!OML:ASF E:\emotionWalksFemale\Project 1\Capture day 1\Session 1\Female1.ASF
:FULLY-SPECIFIED
:DEGREES
81
root 6.33841 15.0257 41.3516 175.491 25.1064 -178.405
lowerback 11.408 -0.640722 -11.3366
upperback -12.0161 -1.53816 5.17715
thorax -19.8002 1.92152 12.9502
lowerneck -19.7388 -3.12451 -8.03212
upperneck 26.5686 -1.72032 1.89501
head 12.1614 -1.08123 1.84668
rclavicle 9.14409e-015 2.06736e-014
rhumerus 25.636 31.7191 -43.8341
rradius 28.4662
rwrist 20.8521
rhand -6.9666 -49.3087
rfingers 7.12502
rthumb -161.097 101.59
lclavicle 9.14409e-015 2.06736e-014
lhumerus 15.8742 -2.47589 68.4413
lradius 23.3377
lwrist -40.0943
lhand -8.69358 -37.9506
lfingers 7.12502
lthumb 17.2414 -8.69542
rfemur -5.89338 28.3203 20.8772
rtibia 27.1537
rfoot -18.6111 -22.9452
rtoes -10.3213
lfemur 0.5495 -20.1205 -28.6626
ltibia 29.3532
lfoot -34.9956 27.4664
ltoes -19.3793
82
root 6.32121 15.05 41.3552 175.549 25.0504 -178.392
lowerback 11.5538 -0.61195 -11.4071
upperback -12.0599 -1.52772 5.17267
thorax -19.9601 1.95803 12.9977
lowerneck -19.7347 -3.16958 -8.11357
upperneck 26.6839 -1.74589 1.89322
head 12.2096 -1.09925 1.85765
rclavicle -5.00937e-014 4.85035e-014
rhumerus 25.341 31.7165 -44.024
rradius 28.493
rwrist 20.9736
rhand -7.12359 -49.4697
rfingers 7.12502
rthumb -161.248 101.414
lclavicle -5.00937e-014 4.85035e-014
lhumerus 15.8806 -2.5914 68.7016
lradius 23.2702
lwrist -40.2723
lhand -8.80495 -38.2066
lfingers 7.12502
lthumb 17.1342 -8.94209
rfemur -5.73183 28.4977 20.7875
rtibia 27.2826
rfoot -19.9235 -21.7913
rtoes -4.13937
lfemur 0.507803 -19.8251 -28.5676
ltibia 29.1474
lfoot -34.5585 27.3673
ltoes -20.329
83
root 6.30402 15.0671 41.354 175.684 25.0992 -178.37
lowerback 11.5599 -0.587485 -11.4469
upperback -12.095 -1.49473 5.18661
thorax -20.0223 1.9923 13.0337
lowerneck -19.722 -3.21446 -8.01132
upperneck 26.7048 -1.7606 1.6264
head 12.2138 -1.1301 1.73706
rclavicle -4.37326e-015 4.77083e-015
rhumerus 25.1079 31.5524 -44.4208
rradius 28.3903
rwrist 21.2966
rhand -6.85285 -50.1214
rfingers 7.12502
rthumb -160.988 100.788
lclavicle -4.37326e-015 4.77083e-015
lhumerus 15.9734 -2.70073 68.9278
lradius 23.1297
lwrist -40.2749
lhand -9.06577 -38.1242
lfingers 7.12502
lthumb 16.8831 -8.83804
rfemur -5.77188 28.4449 20.6337
rtibia 27.2141
rfoot -20.1905 -21.0882
rtoes -1.1868
lfemur 0.29854 -19.584 -28.4865
ltibia 29.1871
lfoot -34.3023 27.4568
ltoes -21.4837
84
root 6.28867 15.0527 41.3546 175.864 25.1818 -178.246
lowerback 11.5685 -0.610702 -11.4316
upperback -12.1265 -1.50501 5.2585
thorax -20.0669 2.00488 13.1195
lowerneck -19.7915 -3.2091 -7.78658
upperneck 26.794 -1.69917 1.24686
head 12.2547 -1.12964 1.56604
rclavicle -2.0276e-014 1.74931e-014
rhumerus 25.1194 31.7534 -44.5707
rradius 28.3218
rwrist 21.2751
rhand -6.57076 -50.4926
rfingers 7.12502
rthumb -160.716 100.444
lclavicle -2.0276e-014 1.74931e-014
lhumerus 15.9376 -3.02598 68.9133
lradius 23.1276
lwrist -39.7558
lhand -8.97761 -37.8756
lfingers 7.12502
lthumb 16.968 -8.59675
rfemur -6.26312 28.5908 20.5774
rtibia 27.2376
rfoot -19.6148 -21.7722
rtoes -4.0594
lfemur 0.146697 -19.5596 -28.3641
ltibia 29.1344
lfoot -34.218 27.594
ltoes -21.5909
85
root 6.27298 15.0258 41.3606 175.78 25.1546 -178.242
lowerback 11.858 -0.601124 -11.4539
upperback -12.1244 -1.5431 5.23556
thorax -20.2479 2.00449 13.1343
lowerneck -19.8158 -3.22923 -7.82346
upperneck 26.9054 -1.68946 1.20215
head 12.3043 -1.13395 1.55823
rclavicle -4.77083e-015 2.62396e-014
rhumerus 24.9875 31.9 -44.8253
rradius 28.2892
rwrist 21.2989
rhand -6.75179 -50.3257
rfingers 7.12502
rthumb -160.89 100.593
lclavicle -4.77083e-015 2.62396e-014
lhumerus 15.8871 -3.5205 68.7374
lradius 23.1628
lwrist -39.3219
lhand -8.75433 -38.1178
lfingers 7.12502
lthumb 17.1829 -8.8575
rfemur -6.2774 28.4023 20.5664
rtibia 26.91
rfoot -18.0984 -22.9993
rtoes -11.3399
lfemur 0.0453123 -19.6956 -28.4695
ltibia 29.4869
lfoot -34.6459 27.3506
ltoes -19.9941
86
root 6.25672 15.0413 41.3665 175.695 25.0969 -178.285
lowerback 12.1108 -0.560938 -11.5961
upperback -12.1162 -1.55792 5.22825
thorax -20.4041 2.03262 13.2316
lowerneck -19.5951 -3.27743 -7.93717
upperneck 26.7813 -1.71864 1.13062
head 12.2146 -1.16563 1.54551
rclavicle 7.43455e-014 -2.38542e-015
rhumerus 24.8138 32.0119 -44.9352
rradius 28.3207
rwrist 21.2532
rhand -6.72444 -50.0406
rfingers 7.12502
rthumb -160.864 100.881
lclavicle 7.43455e-014 -2.38542e-015
lhumerus 15.8476 -3.82745 68.8106
lradius 23.2583
lwrist -39.3209
lhand -8.67947 -38.563
lfingers 7.12502
lthumb 17.255 -9.30909
rfemur -5.86181 28.7143 20.4672
rtibia 26.651
rfoot -19.7323 -21.7949
rtoes -3.59532
lfemur -0.0234867 -19.7675 -28.572
ltibia 29.7114
lfoot -34.9726 27.0211
ltoes -18.8556
87
root 6.23995 15.0083 41.372 175.778 25.0599 -178.109
lowerback 12.2958 -0.555348 -11.7275
upperback -12.1174 -1.56477 5.40635
thorax -20.5319 2.09105 13.5481
lowerneck -19.5678 -3.29378 -8.07507
upperneck 26.8509 -1.6392 0.98199
head 12.2359 -1.16148 1.52652
rclavicle -7.95139e-016 -2.46493e-014
rhumerus 24.8861 32.5443 -44.4108
rradius 28.5729
rwrist 20.7438
rhand -6.3309 -50.2888
rfingers 7.12502
rthumb -160.486 100.67
lclavicle -7.95139e-016 -2.46493e-014
lhumerus 15.7341 -3.90473 69.2043
lradius 23.3504
lwrist -39.276
lhand -8.62954 -38.5035
lfingers 7.12502
lthumb 17.303 -9.25377
rfemur -6.32439 28.1822 20.5311
rtibia 26.4813
rfoot -15.5622 -23.7524
rtoes -18.3809
lfemur -0.187736 -19.6805 -28.4155
ltibia 29.8622
lfoot -34.9944 26.9651
ltoes -19.4651
88
root 6.2212 15.0355 41.3744 175.89 25.0766 -177.815
lowerback 12.5455 -0.530835 -11.6662
upperback -12.1104 -1.51022 5.57117
thorax -20.7172 2.15093 13.7203
lowerneck -19.6971 -3.31289 -8.12545
upperneck 26.9847 -1.55902 0.770521
head 12.3125 -1.15879 1.4683
rclavicle 1.94809e-014 9.54166e-015
rhumerus 24.8819 32.8844 -44.0568
rradius 28.7658
rwrist 20.3728
rhand -6.30278 -50.3354
rfingers 7.12502
rthumb -160.459 100.627
lclavicle 1.94809e-014 9.54166e-015
lhumerus 15.7406 -3.93405 69.5867
lradius 23.2322
lwrist -39.2786
lhand -8.66302 -38.3565
lfingers 7.12502
lthumb 17.2708 -9.10392
rfemur -6.2318 28.5307 20.7213
rtibia 26.5873
rfoot -18.2863 -22.5242
rtoes -8.65762
lfemur -0.123568 -19.5943 -28.1194
ltibia 29.6774
lfoot -35.1011 26.799
ltoes -19.86
89
root 6.20398 15.0509 41.3743 176.097 25.1206 -177.65
lowerback 12.6139 -0.502292 -11.5968
upperback -12.1282 -1.44324 5.63389
thorax -20.8146 2.19349 13.7454
lowerneck -19.7281 -3.3526 -8.19344
upperneck 26.9189 -1.54107 0.599857
head 12.2935 -1.18139 1.41632
rclavicle 2.5842e-014 -2.46493e-014
rhumerus 24.6902 32.5925 -44.3749
rradius 28.641
rwrist 20.4932
rhand -6.39789 -50.5913
rfingers 7.12502
rthumb -160.55 100.362
lclavicle 2.5842e-014 -2.46493e-014
lhumerus 15.8487 -4.02589 69.7833
lradius 23.0878
lwrist -39.3501
lhand -8.99413 -38.4589
lfingers 7.12502
lthumb 16.9521 -9.17872
rfemur -6.38679 28.3006 20.6891
rtibia 26.6575
rfoot -19.5182 -21.7066
rtoes -5.67401
lfemur -0.235569 -19.6347 -27.9479
ltibia 29.5702
lfoot -35.4081 26.6432
ltoes -20.4634
90
root 6.18865 15.0521 41.3713 176.129 25.1458 -177.767
lowerback 12.5692 -0.396655 -11.6951
upperback -12.0689 -1.31746 5.63613
thorax -20.7519 2.25117 13.7646
lowerneck -19.6916 -3.47473 -8.66164
upperneck 26.684 -1.58713 0.633607
head 12.206 -1.24675 1.49649
rclavicle -3.65764e-014 7.95139e-015
rhumerus 24.4507 31.9965 -44.598
rradius 28.5226
rwrist 20.8303
rhand -6.61397 -51.2389
rfingers 7.12502
rthumb -160.758 99.693
lclavicle -3.65764e-014 7.95139e-015
lhumerus 15.9377 -4.31185 69.9761
lradius 23.2258
lwrist -39.1876
lhand -8.99045 -38.4631
lfingers 7.12502
lthumb 16.9556 -9.18315
rfemur -6.69376 27.6406 20.3864
rtibia 27.0384
rfoot -20.2705 -21.1367
rtoes -7.13541
lfemur -0.0955428 -19.7714 -28.1517
ltibia 29.168
lfoot -35.3651 26.878
ltoes -21.2579
91
root 6.17419 15.0497 41.368 176.002 25.2184 -178.015
lowerback 12.4764 -0.0746697 -11.7335
upperback -11.8914 -0.895736 5.55604
thorax -20.6073 2.3949 13.5485
lowerneck -19.6846 -3.82228 -9.70085
upperneck 26.3476 -1.84988 0.932542
head 12.1119 -1.43266 1.73356
rclavicle -5.56597e-015 -2.8625e-014
rhumerus 24.1128 31.3986 -43.9991
rradius 28.688
rwrist 20.6906
rhand -7.2011 -50.8345
rfingers 7.12502
rthumb -161.323 100.042
lclavicle -5.56597e-015 -2.8625e-014
lhumerus 16.1844 -5.07252 70.3936
lradius 23.5084
lwrist -38.824
lhand -8.90638 -38.4036
lfingers 7.12502
lthumb 17.0366 -9.13069
rfemur -6.95092 26.9138 19.9907
rtibia 27.3615
rfoot -20.4642 -20.8768
rtoes -9.65587
lfemur 0.0743763 -19.8075 -28.4982
ltibia 28.8909
lfoot -35.4341 26.8867
ltoes -20.5513
92
root 6.15967 15.0574 41.3679 176.031 25.3666 -178.015
lowerback 12.5602 -0.257116 -12.0277
upperback -11.9427 -1.25915 5.47323
thorax -20.5967 2.26731 13.7335
lowerneck -19.337 -3.59969 -8.89807
upperneck 26.2387 -1.82179 0.844542
head 11.9774 -1.34731 1.57487
rclavicle -9.46215e-014 -1.59028e-014
rhumerus 24.1156 31.546 -44.8811
rradius 28.5601
rwrist 20.6658
rhand -7.45897 -50.1555
rfingers 7.12502
rthumb -161.571 100.697
lclavicle -9.46215e-014 -1.59028e-014
lhumerus 16.1558 -5.48454 69.4045
lradius 23.3965
lwrist -38.0486
lhand -9.02342 -38.0949
lfingers 7.12502
lthumb 16.9239 -8.81231
rfemur -7.23067 26.2229 19.8537
rtibia 27.6648
rfoot -20.5459 -20.4182
rtoes -10.0428
lfemur 0.111567 -19.6327 -28.4971
ltibia 28.6841
lfoot -35.3875 26.8473
ltoes -20.452
93
root 6.1457 15.0615 41.3712 176.165 25.4969 -177.748
lowerback 12.7417 -0.291378 -12.0857
upperback -12.0362 -1.32274 5.53137
thorax -20.8243 2.29399 13.8807
lowerneck -18.9212 -3.52235 -8.60764
upperneck 26.1916 -1.79886 0.709172
head 11.868 -1.31779 1.48399
rclavicle 2.66371e-014 2.8625e-014
rhumerus 23.7494 31.8265 -45.0324
rradius 28.7032
rwrist 20.3404
rhand -7.29238 -49.8088
rfingers 7.12502
rthumb -161.41 101.059
lclavicle 2.66371e-014 2.8625e-014
lhumerus 15.9371 -5.66622 69.2161
lradius 23.4381
lwrist -37.732
lhand -9.0219 -37.8363
lfingers 7.12502
lthumb 16.9254 -8.5538
rfemur -7.60535 25.3341 19.9955
rtibia 27.989
rfoot -20.3489 -19.6171
rtoes -10.216
lfemur 0.189229 -19.6439 -28.2837
ltibia 28.5044
lfoot -35.3695 27.1256
ltoes -21.0835
